# xmcd CD database file
#
# Track frame offsets:
#	150
#	10583
#	25235
#	41956
#	56540
#	69008
#	78608
#	88581
#	99181
#	110514
#	122341
#	142475
#	153033
#	165533
#	178299
#	188004
#	209756
#
# Disc length: 3100 seconds
#
# Revision: 0
# Processed by: cddbd v1.5.2PL0 Copyright (c) Steve Scherf et al.
# Submitted via: CDex 1.79
#
DISCID=df0c1a11
DTITLE=Diverse - JazzXmas Vol. 1
DYEAR=1900
DGENRE=Jazz
TTITLE0=Peggy Lee - Santa Claus Is Comming to Town
TTITLE1=Sammy Davis Jr. and Carmen McRae - Baby it's cold Outside
TTITLE2=Oscar Peterson - Let It Snow Let It Snow
TTITLE3=Nat King Cole - The Chrismas Song
TTITLE4=Ella Fitzgerald - Oh Come All Ye Faithfull
TTITLE5=Tony Bennet - White Christmas
TTITLE6=Gene Ammons - Swingin' For Christmas
TTITLE7=Nancy Wilson - That's What I Want For Christmas
TTITLE8=The Swingle Singers - Jingle Bells
TTITLE9=Lou Rawls - Winter Wonderland
TTITLE10=George Shearing and Billy May - Snowfall
TTITLE11=Peggy Lee - Little Drummer Boy
TTITLE12=Frank Sinatra - The First Noel
TTITLE13=Louis Armstrong - Is Zat You Santa Claus!
TTITLE14=Ella Fitzgerald - Oh Littel Town of Bethlehem
TTITLE15=Dave Brubeck - Silent Night Holy Night
TTITLE16=Ray Charles - Sprit Of Christmas
EXTD=
EXTT0=
EXTT1=
EXTT2=
EXTT3=
EXTT4=
EXTT5=
EXTT6=
EXTT7=
EXTT8=
EXTT9=
EXTT10=
EXTT11=
EXTT12=
EXTT13=
EXTT14=
EXTT15=
EXTT16=
PLAYORDER=
